PathFileType  4	(X/Y/Z) C:\Users\antoi\Documents\MyRepositories\mobilecap\ResultsAnalysis
DataRate	CameraRate	NumFrames	NumMarkers	Units	OrigDataRate	OrigDataStartFrame	OrigNumFrames
100.0	100.0	5	51	mm	100.0	1	150
Frame#	Time	r_knee			r_shank_antsup			r_ankle			r_calc			r_5meta			r_toe			L_knee			L_shank_antsup			L_ankle			L_calc			L_5meta			L_toe			r_sh2			r_sh3			r_sh4			L_sh2			L_sh3			r_thigh1			r_thigh2			r_thigh3			r_thigh4			r_thigh5			L_thigh1			L_thigh2			L_thigh3			L_thigh4			r.ASIS			r.PSIS			L.ASIS			L.PSIS			C7			R_Shoulder			L_Shoulder			R_Sternum			L_Sternum			R_humerus			R_elbow_med			R_elbow_lat			R_forearm			R_wrist_radius			R_wrist_ulna			L_humerus			L_elbow_med			L_elbow_lat			L_forearm			L_wrist_radius			L_wrist_ulna			R_HJC			L_HJC			R_HJC_reg			L_HJC_reg			
		X1	Y1	Z1	X2	Y2	Z2	X3	Y3	Z3	X4	Y4	Z4	X5	Y5	Z5	X6	Y6	Z6	X7	Y7	Z7	X8	Y8	Z8	X9	Y9	Z9	X10	Y10	Z10	X11	Y11	Z11	X12	Y12	Z12	X13	Y13	Z13	X14	Y14	Z14	X15	Y15	Z15	X16	Y16	Z16	X17	Y17	Z17	X18	Y18	Z18	X19	Y19	Z19	X20	Y20	Z20	X21	Y21	Z21	X22	Y22	Z22	X23	Y23	Z23	X24	Y24	Z24	X25	Y25	Z25	X26	Y26	Z26	X27	Y27	Z27	X28	Y28	Z28	X29	Y29	Z29	X30	Y30	Z30	X31	Y31	Z31	X32	Y32	Z32	X33	Y33	Z33	X34	Y34	Z34	X35	Y35	Z35	X36	Y36	Z36	X37	Y37	Z37	X38	Y38	Z38	X39	Y39	Z39	X40	Y40	Z40	X41	Y41	Z41	X42	Y42	Z42	X43	Y43	Z43	X44	Y44	Z44	X45	Y45	Z45	X46	Y46	Z46	X47	Y47	Z47	X48	Y48	Z48	X49	Y49	Z49	X50	Y50	Z50	X51	Y51	Z51	

1	0.00000000	-76.24245	465.44803	-108.70857	-40.56942	407.96560	-81.26217	69.51041	116.77305	-104.01651	33.32875	49.76278	-146.28047	185.06539	122.29606	-75.00175	210.04409	165.90254	-127.50177	-379.88727	457.72030	-413.36113	-380.86702	388.36109	-416.87690	-546.65821	123.29935	-401.12345	-626.23398	106.74986	-358.60653	-477.43175	45.89364	-430.56611	-422.62763	53.27329	-376.26162	3.01915	304.66972	-73.16623	-109.39813	377.96151	-96.36496	-69.39427	268.27029	-93.00104	-456.16075	431.12558	-433.96612	-506.66482	320.57333	-438.32426	-132.60482	769.83712	-128.41113	-85.87733	667.75009	-116.67457	-123.31328	633.66952	-70.37031	-223.29232	738.90992	-68.29096	-181.86162	629.85066	-70.39139	-219.98888	706.53761	-440.14237	-258.92932	573.71175	-432.31958	-330.07367	738.87296	-454.38850	-365.56515	602.80093	-433.48235	-172.58607	893.12607	-144.92303	-354.74167	895.47680	-219.39312	-168.10698	875.31638	-404.37734	-355.65582	894.36904	-324.53598	-268.75900	1365.76476	-280.26077	-245.23843	1301.09386	-118.80798	-189.36104	1304.82373	-434.64677	-167.98882	1269.58183	-246.02378	-160.95722	1269.90624	-290.13621	-274.60661	1061.07624	-46.80748	-315.01726	961.36221	-108.07551	-312.21867	980.11989	-37.23460	-269.56758	867.74094	-8.72296	-253.58744	752.78167	3.69570	-297.47064	744.79345	3.28773	-143.20894	1175.86814	-472.79399	-206.74982	961.50631	-468.68261	-172.01148	974.01152	-517.73118	-105.43702	885.29746	-511.75856	-76.98088	763.48120	-493.85912	-101.28548	750.69219	-520.07961	-234.05910	812.56769	-169.03867	-230.42085	804.24394	-369.12551	-225.40556	797.23329	-180.11225	-226.89782	795.42493	-351.76415	
2	0.01000000	-60.60037	464.30363	-108.58116	-25.99734	405.49693	-81.16704	77.96926	112.37560	-103.61492	39.32822	47.56888	-145.01793	194.08141	115.15972	-76.10871	219.35691	158.32416	-128.77302	-368.55000	457.33924	-413.09502	-370.81336	387.52692	-416.62421	-543.02766	126.67418	-401.20839	-623.07696	112.43965	-358.52117	-476.38217	46.74498	-430.47662	-421.45807	52.73155	-376.33059	15.40902	301.37633	-73.09765	-94.70904	376.41487	-95.73648	-58.11940	266.67405	-92.04957	-445.47123	432.55412	-433.36983	-498.28695	322.98528	-438.12763	-116.93640	769.35137	-128.01663	-69.97047	667.12853	-116.93367	-106.92414	632.88288	-70.44399	-207.41002	737.83100	-67.04703	-165.50007	628.84911	-69.67253	-208.00296	705.75941	-439.45031	-247.94710	572.69496	-432.89289	-317.85917	738.39381	-452.12630	-353.76806	602.43870	-431.91276	-157.42746	891.92786	-143.86424	-340.39550	893.67955	-216.42754	-155.49758	874.54855	-403.32071	-342.08650	892.83051	-321.29039	-256.55636	1364.28317	-276.06568	-232.23544	1298.98299	-114.97794	-177.35809	1304.33331	-430.85277	-155.24704	1268.17079	-242.55666	-147.95306	1268.71961	-286.56595	-262.14008	1058.60125	-44.46806	-302.08485	959.30515	-106.69163	-299.70109	977.45170	-35.93120	-258.49737	864.94955	-7.38062	-243.22178	749.86389	4.59044	-287.09330	742.05899	3.44377	-131.06028	1175.44186	-469.24114	-195.11368	961.42761	-465.13467	-160.85106	973.81870	-514.37171	-94.78440	884.68966	-509.47584	-66.69240	762.62225	-492.35350	-91.47831	750.07546	-518.45083	-218.78568	811.17210	-167.41082	-217.18209	803.20525	-367.51738	-210.42617	795.79127	-178.88959	-213.19814	794.40303	-350.49710	
3	0.02000000	-45.14874	463.05582	-108.42368	-11.60720	403.00435	-81.10110	86.30190	108.13922	-103.36633	45.00217	45.97726	-144.00063	202.74567	107.66694	-77.27087	228.62015	150.24030	-130.06134	-356.93160	456.89309	-412.79535	-360.52922	386.66966	-416.35723	-539.19140	130.15525	-401.23378	-619.66491	118.31230	-358.34724	-475.25447	47.67395	-430.35352	-420.21958	52.21576	-376.36326	27.65932	298.06701	-73.15668	-80.22740	374.84681	-95.20907	-46.92977	265.02921	-91.31456	-434.54033	433.99196	-432.75715	-489.65051	325.41758	-437.88129	-101.27361	768.75172	-127.45558	-54.10448	666.41340	-116.98169	-90.67640	631.99465	-70.41141	-191.56534	736.72473	-65.74687	-149.28957	627.79052	-68.97291	-195.83460	704.98007	-438.68211	-236.64886	571.72139	-433.26123	-305.49328	737.90304	-449.78993	-341.74790	602.02545	-430.31044	-142.13615	890.74232	-142.73139	-325.91662	891.89841	-213.40683	-142.73866	873.77854	-402.18296	-328.38821	891.31555	-318.03260	-244.30071	1362.83406	-271.82210	-219.11758	1296.90511	-111.09495	-165.33706	1303.85403	-427.03488	-142.43939	1266.80376	-239.04498	-134.98189	1267.57147	-282.98091	-249.52039	1056.14992	-42.05918	-289.06364	957.28614	-105.21514	-287.06264	974.83833	-34.51982	-247.27025	862.17779	-5.98349	-232.74931	746.96635	5.52571	-276.59210	739.35831	3.67474	-118.92362	1175.02652	-465.68834	-183.51598	961.36408	-461.61321	-149.73587	973.63813	-511.02962	-84.15352	884.10529	-507.19841	-56.43890	761.78262	-490.83905	-81.66743	749.48553	-516.80250	-203.39909	809.79089	-165.72489	-203.80268	802.17317	-365.84440	-195.30636	794.34702	-177.59685	-199.36307	793.39160	-349.15806	
4	0.03000000	-30.03132	461.65840	-108.20927	2.49916	400.51049	-81.08964	94.41229	104.21335	-103.38515	50.14404	45.38640	-143.40261	210.77704	99.63907	-78.52169	237.75529	141.34114	-131.38777	-344.78880	456.33137	-412.43198	-349.81624	385.77658	-416.06584	-534.96432	133.83538	-401.14836	-615.76765	124.53672	-358.00383	-473.98095	48.75165	-430.16887	-418.85775	51.73715	-376.32917	39.71197	294.77838	-73.43066	-66.09534	373.29422	-94.83702	-35.83935	263.33919	-90.94358	-423.12356	435.42439	-432.11285	-480.53447	327.89290	-437.53691	-85.62878	767.97344	-126.58053	-38.33829	665.53837	-116.64673	-74.71325	630.93739	-70.17139	-175.81347	735.58935	-64.34337	-133.37662	626.64902	-68.29233	-183.32419	704.20345	-437.76257	-224.76839	570.82568	-433.27406	-292.83818	737.38737	-447.32418	-329.30668	601.51750	-428.65151	-126.63084	889.57922	-141.46456	-311.21438	890.16704	-210.29800	-129.69645	873.01202	-400.90324	-314.46202	889.84937	-314.76041	-231.95160	1361.45252	-267.49377	-205.79786	1294.89098	-107.12059	-153.28683	1303.39765	-423.17663	-129.51733	1265.53104	-235.45541	-122.05679	1266.50406	-279.36526	-236.61745	1053.74589	-39.52539	-275.87130	955.33363	-103.56964	-274.19426	972.32177	-32.91381	-235.75280	859.44514	-4.48536	-222.07612	744.11262	6.53874	-265.86287	736.72445	4.04833	-106.81403	1174.63245	-462.13709	-171.98788	961.32733	-458.13791	-138.70240	973.48066	-507.71922	-73.56216	883.56686	-504.93373	-46.23473	760.98530	-489.31349	-71.85144	748.94514	-515.12417	-187.83021	808.44165	-163.93660	-190.17200	801.16064	-364.05803	-179.96468	792.92353	-176.17093	-185.29671	792.40001	-347.68522	
5	0.04000000	-15.31611	460.15883	-107.92056	16.33048	398.10475	-81.14780	102.22386	100.71980	-103.71902	54.69668	45.87930	-143.27732	217.99304	91.17261	-79.85355	246.62072	131.63389	-132.76638	-331.94366	455.62706	-411.98553	-338.52919	384.85153	-415.74818	-530.19212	137.78341	-400.91468	-611.18608	131.25371	-357.42434	-472.50752	50.04114	-429.90183	-417.33771	51.29048	-376.20806	51.60513	291.61870	-73.93879	-52.36543	371.88356	-94.60208	-24.78583	261.68815	-90.96745	-410.99683	436.81226	-431.42320	-470.78001	330.43574	-437.04951	-70.03890	767.03539	-125.28704	-22.75897	664.49497	-115.82878	-59.17228	629.71021	-69.64005	-160.23889	734.46640	-62.80577	-117.89263	625.45391	-67.60222	-170.35917	703.44415	-436.62418	-212.12793	570.02683	-432.87013	-279.79076	736.83145	-444.70739	-316.29700	600.88286	-426.92841	-110.92345	888.45358	-140.02549	-296.27878	888.54921	-207.10970	-116.27795	872.26835	-399.45030	-300.26904	888.46155	-311.49339	-219.49518	1360.18011	-263.06853	-192.24365	1292.97272	-103.04428	-141.21226	1302.98204	-419.27710	-116.46790	1264.41116	-231.77610	-109.17224	1265.56655	-275.70748	-223.34584	1051.41799	-36.83710	-262.44519	953.46729	-101.70781	-261.01293	969.92990	-31.06343	-223.85485	856.77742	-2.85586	-211.13371	741.33563	7.65917	-254.83770	734.19375	4.61890	-94.75665	1174.27354	-458.59486	-160.55434	961.32677	-454.71833	-127.77812	973.35937	-504.45101	-63.02903	883.09811	-502.69384	-36.08087	760.25944	-487.78736	-62.04189	748.47491	-513.42061	-172.09292	807.15456	-162.02307	-176.23774	800.19207	-362.13510	-164.42453	791.58809	-174.55926	-170.97468	791.43947	-346.03143	
